<?xml version="1.0" encoding="UTF-8" standalone="no"?>
<!-- Created with Inkscape (http://www.inkscape.org/) -->

<svg
   xmlns:dc="http://purl.org/dc/elements/1.1/"
   xmlns:cc="http://creativecommons.org/ns#"
   xmlns:rdf="http://www.w3.org/1999/02/22-rdf-syntax-ns#"
   xmlns:svg="http://www.w3.org/2000/svg"
   xmlns="http://www.w3.org/2000/svg"
   xmlns:sodipodi="http://sodipodi.sourceforge.net/DTD/sodipodi-0.dtd"
   xmlns:inkscape="http://www.inkscape.org/namespaces/inkscape"
   width="920.66229"
   height="661.21112"
   id="svg2"
   version="1.1"
   inkscape:version="0.48.4 r9939"
   sodipodi:docname="coin-status-color.png">
  <defs
     id="defs4">
    <inkscape:perspective
       sodipodi:type="inkscape:persp3d"
       inkscape:vp_x="0 : 526.18109 : 1"
       inkscape:vp_y="0 : 1000 : 0"
       inkscape:vp_z="744.09448 : 526.18109 : 1"
       inkscape:persp3d-origin="372.04724 : 350.78739 : 1"
       id="perspective3007" />
  </defs>
  <sodipodi:namedview
     id="base"
     pagecolor="#ffffff"
     bordercolor="#666666"
     borderopacity="1.0"
     inkscape:pageopacity="0.0"
     inkscape:pageshadow="2"
     inkscape:zoom="0.7"
     inkscape:cx="271.47854"
     inkscape:cy="276.30193"
     inkscape:document-units="px"
     inkscape:current-layer="layer1"
     showgrid="false"
     fit-margin-top="5"
     fit-margin-left="5"
     fit-margin-right="5"
     fit-margin-bottom="5"
     inkscape:window-width="1920"
     inkscape:window-height="1051"
     inkscape:window-x="0"
     inkscape:window-y="0"
     inkscape:window-maximized="1" />
  <metadata
     id="metadata7">
    <rdf:RDF>
      <cc:Work
         rdf:about="">
        <dc:format>image/svg+xml</dc:format>
        <dc:type
           rdf:resource="http://purl.org/dc/dcmitype/StillImage" />
        <dc:title></dc:title>
      </cc:Work>
    </rdf:RDF>
  </metadata>
  <g
     inkscape:label="Layer 1"
     inkscape:groupmode="layer"
     id="layer1"
     transform="translate(93.11012,-193.75136)">
    <path
       sodipodi:type="arc"
       style="opacity:0.5;fill:#cccccc;stroke:none"
       id="path2987-5"
       sodipodi:cx="664.28571"
       sodipodi:cy="185.93361"
       sodipodi:rx="67.14286"
       sodipodi:ry="66.428574"
       d="m 731.42857,185.93361 c 0,36.68749 -30.06089,66.42857 -67.14286,66.42857 -37.08198,0 -67.14286,-29.74108 -67.14286,-66.42857 0,-36.68749 30.06088,-66.42857 67.14286,-66.42857 37.08197,0 67.14286,29.74108 67.14286,66.42857 z"
       transform="matrix(0,-0.8341969,0.8341969,0,-187.80085,808.9068)" />
    <path
       sodipodi:type="arc"
       style="opacity:0.5;fill:#ffff00;stroke:none"
       id="path2987-5-9"
       sodipodi:cx="664.28571"
       sodipodi:cy="185.93361"
       sodipodi:rx="67.14286"
       sodipodi:ry="66.428574"
       d="m 731.42857,185.93361 c 0,36.68749 -30.06089,66.42857 -67.14286,66.42857 -37.08198,0 -67.14286,-29.74108 -67.14286,-66.42857 0,-36.68749 30.06088,-66.42857 67.14286,-66.42857 37.08197,0 67.14286,29.74108 67.14286,66.42857 z"
       transform="matrix(0,-0.8341969,0.8341969,0,-187.80085,943.70441)" />
    <path
       sodipodi:type="arc"
       style="opacity:0.5;fill:#00ff00;stroke:none"
       id="path2987-5-8"
       sodipodi:cx="664.28571"
       sodipodi:cy="185.93361"
       sodipodi:rx="67.14286"
       sodipodi:ry="66.428574"
       d="m 731.42857,185.93361 c 0,36.68749 -30.06089,66.42857 -67.14286,66.42857 -37.08198,0 -67.14286,-29.74108 -67.14286,-66.42857 0,-36.68749 30.06088,-66.42857 67.14286,-66.42857 37.08197,0 67.14286,29.74108 67.14286,66.42857 z"
       transform="matrix(0,-0.8341969,0.8341969,0,-187.80085,1213.2996)" />
    <path
       sodipodi:type="arc"
       style="opacity:0.5;fill:#000000;stroke:none"
       id="path2987-5-4"
       sodipodi:cx="664.28571"
       sodipodi:cy="185.93361"
       sodipodi:rx="67.14286"
       sodipodi:ry="66.428574"
       d="m 731.42857,185.93361 c 0,36.68749 -30.06089,66.42857 -67.14286,66.42857 -37.08198,0 -67.14286,-29.74108 -67.14286,-66.42857 0,-36.68749 30.06088,-66.42857 67.14286,-66.42857 37.08197,0 67.14286,29.74108 67.14286,66.42857 z"
       transform="matrix(0,-0.8341969,0.8341969,0,-187.80085,1348.0972)" />
    <path
       sodipodi:type="arc"
       style="opacity:0.5;fill:#ff0000;stroke:none"
       id="path2987-5-1"
       sodipodi:cx="664.28571"
       sodipodi:cy="185.93361"
       sodipodi:rx="67.14286"
       sodipodi:ry="66.428574"
       d="m 731.42857,185.93361 c 0,36.68749 -30.06089,66.42857 -67.14286,66.42857 -37.08198,0 -67.14286,-29.74108 -67.14286,-66.42857 0,-36.68749 30.06088,-66.42857 67.14286,-66.42857 37.08197,0 67.14286,29.74108 67.14286,66.42857 z"
       transform="matrix(0,-0.8341969,0.8341969,0,-187.80085,1078.502)" />
    <rect
       style="opacity:0.5;fill:#000000;stroke:none"
       id="rect3108"
       width="97.14286"
       height="765.71429"
       x="-842.52356"
       y="-822.55219"
       transform="matrix(0,-1,-1,0,0,0)" />
    <rect
       style="opacity:0.5;fill:#cccccc;stroke:none"
       id="rect3108-1"
       width="97.14286"
       height="765.71429"
       x="-707.72595"
       y="-822.55219"
       transform="matrix(0,-1,-1,0,0,0)" />
    <rect
       style="opacity:0.5;fill:#ff0000;stroke:none"
       id="rect3108-8"
       width="97.14286"
       height="765.71429"
       x="-572.92834"
       y="-822.55219"
       transform="matrix(0,-1,-1,0,0,0)" />
    <rect
       style="opacity:0.5;fill:#cccccc;stroke:none"
       id="rect3108-12"
       width="97.14286"
       height="765.71429"
       x="-438.13077"
       y="-822.55219"
       transform="matrix(0,-1,-1,0,0,0)" />
    <rect
       style="opacity:0.5;fill:#cccccc;stroke:none"
       id="rect3108-6"
       width="97.14286"
       height="765.71429"
       x="-303.33316"
       y="-822.55219"
       transform="matrix(0,-1,-1,0,0,0)" />
    <rect
       style="opacity:0.5;fill:#ffff00;stroke:none"
       id="rect3921"
       width="71.428574"
       height="725.71429"
       x="-425.27362"
       y="-791.1236"
       transform="matrix(0,-1,-1,0,0,0)" />
    <rect
       style="opacity:0.5;fill:#666666;stroke:none"
       id="rect3925"
       width="72.85714"
       height="451.42856"
       x="-291.19031"
       y="-519.69501"
       transform="matrix(0,-1,-1,0,0,0)" />
    <rect
       style="opacity:0.5;fill:#00ff00;stroke:none"
       id="rect3927"
       width="80"
       height="45.714287"
       x="-699.15454"
       y="-118.26642"
       transform="matrix(0,-1,-1,0,0,0)" />
    <text
       xml:space="preserve"
       style="font-size:40.85863876px;font-style:normal;font-weight:normal;line-height:125%;letter-spacing:0px;word-spacing:0px;fill:#000000;fill-opacity:1;stroke:none;font-family:Sans"
       x="195.55881"
       y="263.43314"
       id="text4036"
       sodipodi:linespacing="125%"
       transform="scale(0.9789851,1.021466)"><tspan
         sodipodi:role="line"
         id="tspan4038"
         x="195.55881"
         y="263.43314">10% &lt; N &lt; 90%</tspan></text>
    <text
       xml:space="preserve"
       style="font-size:40.85863876px;font-style:normal;font-weight:normal;line-height:125%;letter-spacing:0px;word-spacing:0px;fill:#000000;fill-opacity:1;stroke:none;font-family:Sans"
       x="246.4725"
       y="395.39798"
       id="text4040"
       sodipodi:linespacing="125%"
       transform="scale(0.9789851,1.021466)"><tspan
         sodipodi:role="line"
         id="tspan4042"
         x="246.4725"
         y="395.39798">N &gt;= 90%</tspan></text>
    <text
       xml:space="preserve"
       style="font-size:40.85863876px;font-style:normal;font-weight:normal;line-height:125%;letter-spacing:0px;word-spacing:0px;fill:#000000;fill-opacity:1;stroke:none;font-family:Sans"
       x="246.4725"
       y="527.36279"
       id="text4044"
       sodipodi:linespacing="125%"
       transform="scale(0.9789851,1.021466)"><tspan
         sodipodi:role="line"
         id="tspan4046"
         x="246.4725"
         y="527.36279">N = 100%</tspan></text>
    <text
       xml:space="preserve"
       style="font-size:40.85863876px;font-style:normal;font-weight:normal;line-height:125%;letter-spacing:0px;word-spacing:0px;fill:#000000;fill-opacity:1;stroke:none;font-family:Sans"
       x="246.4725"
       y="659.32764"
       id="text4048"
       sodipodi:linespacing="125%"
       transform="scale(0.9789851,1.021466)"><tspan
         sodipodi:role="line"
         id="tspan4050"
         x="246.4725"
         y="659.32764">N &lt;= 10%</tspan></text>
    <text
       xml:space="preserve"
       style="font-size:40.85863876px;font-style:normal;font-weight:normal;line-height:125%;letter-spacing:0px;word-spacing:0px;fill:#000000;fill-opacity:1;stroke:none;font-family:Sans"
       x="270.97171"
       y="791.29248"
       id="text4052"
       sodipodi:linespacing="125%"
       transform="scale(0.9789851,1.021466)"><tspan
         sodipodi:role="line"
         id="tspan4054"
         x="270.97171"
         y="791.29248">N = 0%</tspan></text>
  </g>
</svg>
